<svg version="1.0" preserveAspectRatio="xMidYMid meet" viewBox="0 56 225 54" xmlns:xlink="http://www.w3.org/1999/xlink" xmlns="http://www.w3.org/2000/svg"><defs><g></g><clipPath id="59218d37a1"><path clip-rule="nonzero" d="M 0 58.9375 L 40 58.9375 L 40 83 L 0 83 Z M 0 58.9375"></path></clipPath><clipPath id="1be8b834c0"><path clip-rule="nonzero" d="M 36 59 L 81 59 L 81 91.171875 L 36 91.171875 Z M 36 59"></path></clipPath><clipPath id="891af274c7"><path clip-rule="nonzero" d="M 78 58.9375 L 119 58.9375 L 119 83 L 78 83 Z M 78 58.9375"></path></clipPath><clipPath id="cbfba2e32f"><path clip-rule="nonzero" d="M 120 58.9375 L 160 58.9375 L 160 83 L 120 83 Z M 120 58.9375"></path></clipPath><clipPath id="ffa8b2df37"><path clip-rule="nonzero" d="M 161 58.9375 L 224.761719 58.9375 L 224.761719 82 L 161 82 Z M 161 58.9375"></path></clipPath></defs><g clip-path="url(#59218d37a1)"><path fill-rule="nonzero" fill-opacity="1" d="M 39.722656 72.097656 L 8.984375 72.097656 C 9.648438 74.8125 12.523438 76.808594 20.988281 76.808594 C 28.738281 76.808594 31.441406 75.519531 31.929688 74.054688 L 39.722656 74.054688 C 39.324219 78.453125 34.011719 82.054688 20.941406 82.054688 C 4.644531 82.058594 0.0351562 76.273438 0.0351562 70.722656 C 0.0351562 63.515625 7.609375 58.9375 20.542969 58.9375 C 33.699219 58.9375 39.722656 63.164062 39.722656 70.277344 Z M 31.929688 67.875 C 31.929688 65.960938 29.097656 64.09375 20.941406 64.09375 C 13.945312 64.09375 10.535156 65.5625 9.339844 68.050781 L 31.929688 68.050781 Z M 31.929688 67.875" fill="#cdff00"></path></g><g clip-path="url(#1be8b834c0)"><path fill-rule="nonzero" fill-opacity="1" d="M 42.664062 90.503906 L 42.664062 84.632812 C 43.902344 84.902344 46.027344 85.210938 48.152344 85.210938 C 52.054688 85.210938 53.777344 84.277344 55.726562 81.476562 L 54.527344 81.476562 L 36.992188 59.515625 L 48.199219 59.515625 L 60.160156 74.808594 L 60.289062 74.808594 L 70.789062 59.515625 L 80.621094 59.515625 L 65.253906 81.121094 C 60.070312 88.414062 57.105469 91.171875 49.21875 91.171875 C 46.738281 91.171875 44.035156 90.769531 42.664062 90.503906 Z M 42.664062 90.503906" fill="#cdff00"></path></g><g clip-path="url(#891af274c7)"><path fill-rule="nonzero" fill-opacity="1" d="M 118.027344 72.097656 L 87.285156 72.097656 C 87.953125 74.8125 90.828125 76.808594 99.292969 76.808594 C 107.042969 76.808594 109.746094 75.519531 110.234375 74.054688 L 118.027344 74.054688 C 117.628906 78.453125 112.316406 82.054688 99.246094 82.054688 C 82.949219 82.054688 78.339844 76.273438 78.339844 70.71875 C 78.339844 63.515625 85.914062 58.9375 98.847656 58.9375 C 112.003906 58.9375 118.027344 63.164062 118.027344 70.277344 Z M 110.234375 67.875 C 110.234375 65.960938 107.398438 64.09375 99.246094 64.09375 C 92.25 64.09375 88.839844 65.5625 87.644531 68.050781 L 110.234375 68.050781 Z M 110.234375 67.875" fill="#cdff00"></path></g><g clip-path="url(#cbfba2e32f)"><path fill-rule="nonzero" fill-opacity="1" d="M 120.324219 74.988281 C 120.324219 71.476562 123.070312 68.675781 131.3125 68.675781 L 150.492188 68.675781 L 150.492188 68.316406 C 150.492188 65.785156 147.65625 64.183594 138.882812 64.183594 C 131.660156 64.183594 129.449219 65.5625 129.449219 66.804688 C 129.449219 66.851562 129.449219 67.027344 129.488281 67.207031 L 121.382812 67.207031 C 121.292969 66.804688 121.292969 66.449219 121.292969 66.320312 C 121.292969 62.097656 126.832031 58.9375 139.722656 58.9375 C 152.875 58.9375 159.253906 62.71875 159.253906 68.984375 L 159.253906 81.476562 L 150.488281 81.476562 C 150.578125 79.925781 150.710938 78.054688 150.710938 76.632812 L 150.667969 76.632812 C 149.25 79.789062 144.550781 82.058594 134.851562 82.058594 C 123.292969 82.058594 120.324219 78.144531 120.324219 74.988281 Z M 150.492188 72.941406 L 150.492188 72.765625 L 134.1875 72.765625 C 130.289062 72.765625 128.429688 73.164062 128.429688 74.453125 C 128.429688 75.921875 130.691406 76.988281 137.378906 76.988281 C 145.796875 76.988281 150.492188 74.632812 150.492188 72.941406 Z M 150.492188 72.941406" fill="#cdff00"></path></g><g clip-path="url(#ffa8b2df37)"><path fill-rule="nonzero" fill-opacity="1" d="M 161.851562 59.515625 L 170.625 59.515625 L 170.535156 66.894531 L 170.578125 66.894531 C 171.910156 62.136719 176.25 58.9375 184.136719 58.9375 C 192.242188 58.9375 196.183594 62.050781 197.335938 66.71875 L 197.425781 66.71875 C 199.019531 62.097656 203.359375 58.9375 211.246094 58.9375 C 220.902344 58.9375 224.84375 63.515625 224.84375 70.496094 L 224.84375 81.476562 L 216.074219 81.476562 L 216.074219 73.03125 C 216.074219 67.875 213.550781 65.519531 207.703125 65.519531 C 201.941406 65.519531 197.734375 68.320312 197.734375 74.007812 L 197.734375 81.476562 L 188.964844 81.476562 L 188.964844 73.03125 C 188.964844 67.875 186.394531 65.519531 180.546875 65.519531 C 174.789062 65.519531 170.625 68.320312 170.625 73.96875 L 170.625 81.480469 L 161.851562 81.480469 Z M 161.851562 59.515625" fill="#cdff00"></path></g><g fill-opacity="1" fill="#cdff00"><g transform="translate(54.207783, 105.086627)"><g><path d="M 9.421875 -4.28125 L 9.421875 -1.03125 C 9.421875 -0.695312 9.503906 -0.472656 9.671875 -0.359375 C 9.835938 -0.253906 10.015625 -0.203125 10.203125 -0.203125 L 10.203125 0 L 7.71875 0 L 7.71875 -0.203125 C 7.90625 -0.203125 8.082031 -0.253906 8.25 -0.359375 C 8.425781 -0.472656 8.515625 -0.695312 8.515625 -1.03125 L 8.515625 -4.140625 C 8.515625 -4.742188 8.441406 -5.195312 8.296875 -5.5 C 8.160156 -5.8125 7.875 -5.96875 7.4375 -5.96875 C 7.144531 -5.96875 6.875 -5.851562 6.625 -5.625 C 6.375 -5.40625 6.171875 -5.046875 6.015625 -4.546875 C 5.867188 -4.046875 5.796875 -3.363281 5.796875 -2.5 L 5.796875 -1.03125 C 5.796875 -0.695312 5.875 -0.472656 6.03125 -0.359375 C 6.195312 -0.253906 6.378906 -0.203125 6.578125 -0.203125 L 6.578125 0 L 4.078125 0 L 4.078125 -0.203125 C 4.273438 -0.203125 4.457031 -0.253906 4.625 -0.359375 C 4.789062 -0.472656 4.875 -0.695312 4.875 -1.03125 L 4.875 -4.140625 C 4.875 -4.734375 4.804688 -5.1875 4.671875 -5.5 C 4.535156 -5.8125 4.242188 -5.96875 3.796875 -5.96875 C 3.523438 -5.96875 3.265625 -5.859375 3.015625 -5.640625 C 2.765625 -5.429688 2.5625 -5.070312 2.40625 -4.5625 C 2.257812 -4.0625 2.1875 -3.375 2.1875 -2.5 L 2.1875 -1.03125 C 2.1875 -0.695312 2.265625 -0.472656 2.421875 -0.359375 C 2.585938 -0.253906 2.769531 -0.203125 2.96875 -0.203125 L 2.96875 0 L 0.46875 0 L 0.46875 -0.203125 C 0.65625 -0.203125 0.832031 -0.253906 1 -0.359375 C 1.175781 -0.472656 1.265625 -0.695312 1.265625 -1.03125 L 1.265625 -5.28125 C 1.265625 -5.625 1.175781 -5.847656 1 -5.953125 C 0.832031 -6.054688 0.65625 -6.109375 0.46875 -6.109375 L 0.46875 -6.328125 L 2.1875 -6.328125 L 2.1875 -4.65625 L 2.21875 -4.65625 C 2.257812 -4.875 2.34375 -5.117188 2.46875 -5.390625 C 2.59375 -5.671875 2.785156 -5.914062 3.046875 -6.125 C 3.304688 -6.34375 3.660156 -6.453125 4.109375 -6.453125 C 4.660156 -6.453125 5.066406 -6.289062 5.328125 -5.96875 C 5.585938 -5.65625 5.738281 -5.210938 5.78125 -4.640625 L 5.84375 -4.640625 C 5.882812 -4.867188 5.96875 -5.125 6.09375 -5.40625 C 6.226562 -5.6875 6.425781 -5.929688 6.6875 -6.140625 C 6.945312 -6.347656 7.289062 -6.453125 7.71875 -6.453125 C 8.332031 -6.453125 8.769531 -6.253906 9.03125 -5.859375 C 9.289062 -5.472656 9.421875 -4.945312 9.421875 -4.28125 Z M 9.421875 -4.28125"></path></g></g></g><g fill-opacity="1" fill="#cdff00"><g transform="translate(64.836178, 105.086627)"><g><path d="M 1.703125 -7.53125 L 0.859375 -8.390625 L 1.703125 -9.25 L 2.5625 -8.390625 Z M 2.1875 -6.328125 L 2.1875 -1.03125 C 2.1875 -0.695312 2.265625 -0.472656 2.421875 -0.359375 C 2.585938 -0.253906 2.769531 -0.203125 2.96875 -0.203125 L 2.96875 0 L 0.46875 0 L 0.46875 -0.203125 C 0.65625 -0.203125 0.832031 -0.253906 1 -0.359375 C 1.175781 -0.472656 1.265625 -0.695312 1.265625 -1.03125 L 1.265625 -5.28125 C 1.265625 -5.625 1.175781 -5.847656 1 -5.953125 C 0.832031 -6.054688 0.65625 -6.109375 0.46875 -6.109375 L 0.46875 -6.328125 Z M 2.1875 -6.328125"></path></g></g></g><g fill-opacity="1" fill="#cdff00"><g transform="translate(68.262439, 105.086627)"><g><path d="M 6.03125 -4.28125 L 6.03125 -1.03125 C 6.03125 -0.695312 6.109375 -0.472656 6.265625 -0.359375 C 6.429688 -0.253906 6.613281 -0.203125 6.8125 -0.203125 L 6.8125 0 L 4.3125 0 L 4.3125 -0.203125 C 4.5 -0.203125 4.675781 -0.253906 4.84375 -0.359375 C 5.019531 -0.472656 5.109375 -0.695312 5.109375 -1.03125 L 5.109375 -4.125 C 5.109375 -4.75 5.019531 -5.207031 4.84375 -5.5 C 4.675781 -5.800781 4.375 -5.953125 3.9375 -5.953125 C 3.632812 -5.953125 3.347656 -5.835938 3.078125 -5.609375 C 2.804688 -5.390625 2.585938 -5.03125 2.421875 -4.53125 C 2.265625 -4.039062 2.1875 -3.367188 2.1875 -2.515625 L 2.1875 -1.03125 C 2.1875 -0.695312 2.265625 -0.472656 2.421875 -0.359375 C 2.585938 -0.253906 2.769531 -0.203125 2.96875 -0.203125 L 2.96875 0 L 0.46875 0 L 0.46875 -0.203125 C 0.65625 -0.203125 0.832031 -0.253906 1 -0.359375 C 1.175781 -0.472656 1.265625 -0.695312 1.265625 -1.03125 L 1.265625 -5.28125 C 1.265625 -5.625 1.175781 -5.847656 1 -5.953125 C 0.832031 -6.054688 0.65625 -6.109375 0.46875 -6.109375 L 0.46875 -6.328125 L 2.1875 -6.328125 L 2.1875 -4.625 L 2.21875 -4.625 C 2.28125 -4.925781 2.390625 -5.210938 2.546875 -5.484375 C 2.710938 -5.765625 2.9375 -5.992188 3.21875 -6.171875 C 3.507812 -6.359375 3.847656 -6.453125 4.234375 -6.453125 C 4.835938 -6.453125 5.285156 -6.257812 5.578125 -5.875 C 5.878906 -5.5 6.03125 -4.96875 6.03125 -4.28125 Z M 6.03125 -4.28125"></path></g></g></g><g fill-opacity="1" fill="#cdff00"><g transform="translate(75.478562, 105.086627)"><g><path d="M 5.90625 -8.90625 L 5.90625 -1.03125 C 5.90625 -0.695312 5.988281 -0.472656 6.15625 -0.359375 C 6.320312 -0.253906 6.503906 -0.203125 6.703125 -0.203125 L 6.703125 0 L 5 0 L 5 -1.65625 C 4.9375 -1.375 4.828125 -1.097656 4.671875 -0.828125 C 4.515625 -0.566406 4.296875 -0.347656 4.015625 -0.171875 C 3.742188 0.00390625 3.394531 0.09375 2.96875 0.09375 C 2.539062 0.09375 2.148438 0 1.796875 -0.1875 C 1.441406 -0.375 1.15625 -0.703125 0.9375 -1.171875 C 0.726562 -1.648438 0.625 -2.3125 0.625 -3.15625 C 0.625 -4.03125 0.726562 -4.703125 0.9375 -5.171875 C 1.15625 -5.648438 1.441406 -5.984375 1.796875 -6.171875 C 2.148438 -6.359375 2.539062 -6.453125 2.96875 -6.453125 C 3.394531 -6.453125 3.742188 -6.367188 4.015625 -6.203125 C 4.296875 -6.035156 4.515625 -5.820312 4.671875 -5.5625 C 4.828125 -5.3125 4.9375 -5.050781 5 -4.78125 L 5 -7.875 C 5 -8.207031 4.910156 -8.425781 4.734375 -8.53125 C 4.554688 -8.644531 4.378906 -8.703125 4.203125 -8.703125 L 4.203125 -8.90625 Z M 3.1875 -0.359375 C 3.476562 -0.359375 3.757812 -0.445312 4.03125 -0.625 C 4.3125 -0.8125 4.539062 -1.109375 4.71875 -1.515625 C 4.90625 -1.929688 5 -2.476562 5 -3.15625 C 5 -3.851562 4.90625 -4.40625 4.71875 -4.8125 C 4.539062 -5.21875 4.3125 -5.515625 4.03125 -5.703125 C 3.757812 -5.890625 3.476562 -5.984375 3.1875 -5.984375 C 2.675781 -5.984375 2.285156 -5.753906 2.015625 -5.296875 C 1.753906 -4.835938 1.625 -4.125 1.625 -3.15625 C 1.625 -2.207031 1.75 -1.503906 2 -1.046875 C 2.257812 -0.585938 2.65625 -0.359375 3.1875 -0.359375 Z M 3.1875 -0.359375"></path></g></g></g><g fill-opacity="1" fill="#cdff00"><g transform="translate(82.596787, 105.086627)"><g><path d="M 1.21875 0.15625 L 0.359375 -0.734375 L 1.21875 -1.5625 L 2.0625 -0.734375 Z M 1.21875 0.15625"></path></g></g></g><g fill-opacity="1" fill="#cdff00"><g transform="translate(85.030128, 105.086627)"><g><path d="M 4.171875 -6.453125 C 4.585938 -6.453125 4.972656 -6.359375 5.328125 -6.171875 C 5.679688 -5.984375 5.960938 -5.648438 6.171875 -5.171875 C 6.390625 -4.703125 6.5 -4.03125 6.5 -3.15625 C 6.5 -2.3125 6.390625 -1.648438 6.171875 -1.171875 C 5.960938 -0.703125 5.679688 -0.375 5.328125 -0.1875 C 4.972656 0 4.585938 0.09375 4.171875 0.09375 C 3.734375 0.09375 3.375 0 3.09375 -0.1875 C 2.8125 -0.375 2.59375 -0.601562 2.4375 -0.875 C 2.28125 -1.15625 2.175781 -1.4375 2.125 -1.71875 L 2.125 0 L 0.421875 0 L 0.421875 -0.203125 C 0.617188 -0.203125 0.800781 -0.253906 0.96875 -0.359375 C 1.132812 -0.472656 1.21875 -0.695312 1.21875 -1.03125 L 1.21875 -7.875 C 1.21875 -8.207031 1.132812 -8.425781 0.96875 -8.53125 C 0.800781 -8.644531 0.617188 -8.703125 0.421875 -8.703125 L 0.421875 -8.90625 L 2.125 -8.90625 L 2.125 -4.71875 C 2.175781 -4.988281 2.273438 -5.253906 2.421875 -5.515625 C 2.578125 -5.785156 2.796875 -6.007812 3.078125 -6.1875 C 3.359375 -6.363281 3.722656 -6.453125 4.171875 -6.453125 Z M 3.9375 -0.359375 C 4.46875 -0.359375 4.859375 -0.585938 5.109375 -1.046875 C 5.367188 -1.503906 5.5 -2.207031 5.5 -3.15625 C 5.5 -4.125 5.367188 -4.835938 5.109375 -5.296875 C 4.859375 -5.753906 4.46875 -5.984375 3.9375 -5.984375 C 3.65625 -5.984375 3.375 -5.890625 3.09375 -5.703125 C 2.8125 -5.515625 2.578125 -5.21875 2.390625 -4.8125 C 2.210938 -4.40625 2.125 -3.851562 2.125 -3.15625 C 2.125 -2.476562 2.210938 -1.929688 2.390625 -1.515625 C 2.578125 -1.109375 2.8125 -0.8125 3.09375 -0.625 C 3.375 -0.445312 3.65625 -0.359375 3.9375 -0.359375 Z M 3.9375 -0.359375"></path></g></g></g><g fill-opacity="1" fill="#cdff00"><g transform="translate(92.09241, 105.086627)"><g><path d="M 3.265625 -6.453125 C 3.890625 -6.453125 4.40625 -6.304688 4.8125 -6.015625 C 5.226562 -5.722656 5.539062 -5.328125 5.75 -4.828125 C 5.957031 -4.335938 6.0625 -3.785156 6.0625 -3.171875 C 6.0625 -2.554688 5.957031 -2 5.75 -1.5 C 5.539062 -1.007812 5.226562 -0.617188 4.8125 -0.328125 C 4.40625 -0.046875 3.890625 0.09375 3.265625 0.09375 C 2.648438 0.09375 2.132812 -0.046875 1.71875 -0.328125 C 1.3125 -0.617188 1 -1.007812 0.78125 -1.5 C 0.570312 -2 0.46875 -2.554688 0.46875 -3.171875 C 0.46875 -3.785156 0.570312 -4.335938 0.78125 -4.828125 C 1 -5.328125 1.3125 -5.722656 1.71875 -6.015625 C 2.132812 -6.304688 2.648438 -6.453125 3.265625 -6.453125 Z M 3.265625 -0.359375 C 3.703125 -0.359375 4.050781 -0.484375 4.3125 -0.734375 C 4.582031 -0.992188 4.773438 -1.332031 4.890625 -1.75 C 5.015625 -2.175781 5.078125 -2.648438 5.078125 -3.171875 C 5.078125 -3.691406 5.015625 -4.164062 4.890625 -4.59375 C 4.773438 -5.019531 4.582031 -5.359375 4.3125 -5.609375 C 4.050781 -5.859375 3.703125 -5.984375 3.265625 -5.984375 C 2.835938 -5.984375 2.488281 -5.859375 2.21875 -5.609375 C 1.957031 -5.359375 1.765625 -5.019531 1.640625 -4.59375 C 1.523438 -4.164062 1.46875 -3.691406 1.46875 -3.171875 C 1.46875 -2.648438 1.523438 -2.175781 1.640625 -1.75 C 1.765625 -1.332031 1.957031 -0.992188 2.21875 -0.734375 C 2.488281 -0.484375 2.835938 -0.359375 3.265625 -0.359375 Z M 3.265625 -0.359375"></path></g></g></g><g fill-opacity="1" fill="#cdff00"><g transform="translate(98.637261, 105.086627)"><g><path d="M 5.90625 -8.90625 L 5.90625 -1.03125 C 5.90625 -0.695312 5.988281 -0.472656 6.15625 -0.359375 C 6.320312 -0.253906 6.503906 -0.203125 6.703125 -0.203125 L 6.703125 0 L 5 0 L 5 -1.65625 C 4.9375 -1.375 4.828125 -1.097656 4.671875 -0.828125 C 4.515625 -0.566406 4.296875 -0.347656 4.015625 -0.171875 C 3.742188 0.00390625 3.394531 0.09375 2.96875 0.09375 C 2.539062 0.09375 2.148438 0 1.796875 -0.1875 C 1.441406 -0.375 1.15625 -0.703125 0.9375 -1.171875 C 0.726562 -1.648438 0.625 -2.3125 0.625 -3.15625 C 0.625 -4.03125 0.726562 -4.703125 0.9375 -5.171875 C 1.15625 -5.648438 1.441406 -5.984375 1.796875 -6.171875 C 2.148438 -6.359375 2.539062 -6.453125 2.96875 -6.453125 C 3.394531 -6.453125 3.742188 -6.367188 4.015625 -6.203125 C 4.296875 -6.035156 4.515625 -5.820312 4.671875 -5.5625 C 4.828125 -5.3125 4.9375 -5.050781 5 -4.78125 L 5 -7.875 C 5 -8.207031 4.910156 -8.425781 4.734375 -8.53125 C 4.554688 -8.644531 4.378906 -8.703125 4.203125 -8.703125 L 4.203125 -8.90625 Z M 3.1875 -0.359375 C 3.476562 -0.359375 3.757812 -0.445312 4.03125 -0.625 C 4.3125 -0.8125 4.539062 -1.109375 4.71875 -1.515625 C 4.90625 -1.929688 5 -2.476562 5 -3.15625 C 5 -3.851562 4.90625 -4.40625 4.71875 -4.8125 C 4.539062 -5.21875 4.3125 -5.515625 4.03125 -5.703125 C 3.757812 -5.890625 3.476562 -5.984375 3.1875 -5.984375 C 2.675781 -5.984375 2.285156 -5.753906 2.015625 -5.296875 C 1.753906 -4.835938 1.625 -4.125 1.625 -3.15625 C 1.625 -2.207031 1.75 -1.503906 2 -1.046875 C 2.257812 -0.585938 2.65625 -0.359375 3.1875 -0.359375 Z M 3.1875 -0.359375"></path></g></g></g><g fill-opacity="1" fill="#cdff00"><g transform="translate(105.755486, 105.086627)"><g><path d="M 6.90625 -6.328125 L 6.90625 -6.109375 C 6.707031 -6.109375 6.5 -6.054688 6.28125 -5.953125 C 6.0625 -5.859375 5.898438 -5.648438 5.796875 -5.328125 L 3.609375 1.40625 C 3.429688 1.9375 3.242188 2.3125 3.046875 2.53125 C 2.847656 2.75 2.53125 2.859375 2.09375 2.859375 C 1.570312 2.859375 1.179688 2.703125 0.921875 2.390625 C 0.660156 2.085938 0.5625 1.707031 0.625 1.25 L 1.53125 1.359375 C 1.5 1.765625 1.554688 2.046875 1.703125 2.203125 C 1.859375 2.359375 2.019531 2.4375 2.1875 2.4375 C 2.414062 2.4375 2.582031 2.351562 2.6875 2.1875 C 2.800781 2.03125 2.921875 1.769531 3.046875 1.40625 L 3.5 0 L 2.953125 0 L 1.21875 -5.328125 C 1.113281 -5.648438 0.945312 -5.859375 0.71875 -5.953125 C 0.5 -6.054688 0.289062 -6.109375 0.09375 -6.109375 L 0.09375 -6.328125 L 1.859375 -6.328125 L 3.703125 -0.640625 L 5.234375 -5.328125 C 5.304688 -5.546875 5.300781 -5.710938 5.21875 -5.828125 C 5.132812 -5.941406 5.003906 -6.015625 4.828125 -6.046875 C 4.660156 -6.085938 4.46875 -6.109375 4.25 -6.109375 L 4.25 -6.328125 Z M 6.90625 -6.328125"></path></g></g></g><g fill-opacity="1" fill="#cdff00"><g transform="translate(112.677928, 105.086627)"><g><path d="M 1.21875 0.15625 L 0.359375 -0.734375 L 1.21875 -1.5625 L 2.0625 -0.734375 Z M 1.21875 0.15625"></path></g></g></g><g fill-opacity="1" fill="#cdff00"><g transform="translate(115.111268, 105.086627)"><g><path d="M 2.5 -3.9375 L 3.78125 -3.53125 C 4.257812 -3.375 4.613281 -3.15625 4.84375 -2.875 C 5.070312 -2.601562 5.1875 -2.234375 5.1875 -1.765625 C 5.1875 -1.359375 5.113281 -1.035156 4.96875 -0.796875 C 4.832031 -0.554688 4.648438 -0.367188 4.421875 -0.234375 C 4.203125 -0.109375 3.957031 -0.0234375 3.6875 0.015625 C 3.414062 0.0664062 3.15625 0.09375 2.90625 0.09375 C 2.289062 0.09375 1.796875 -0.015625 1.421875 -0.234375 C 1.046875 -0.460938 0.773438 -0.6875 0.609375 -0.90625 L 0.609375 -2.859375 L 0.78125 -2.859375 C 0.882812 -2.066406 1.113281 -1.453125 1.46875 -1.015625 C 1.832031 -0.578125 2.3125 -0.359375 2.90625 -0.359375 C 3.34375 -0.359375 3.6875 -0.460938 3.9375 -0.671875 C 4.195312 -0.890625 4.328125 -1.195312 4.328125 -1.59375 C 4.328125 -1.875 4.25 -2.109375 4.09375 -2.296875 C 3.945312 -2.484375 3.679688 -2.632812 3.296875 -2.75 L 2.09375 -3.140625 C 1.664062 -3.273438 1.332031 -3.472656 1.09375 -3.734375 C 0.851562 -3.992188 0.734375 -4.335938 0.734375 -4.765625 C 0.734375 -5.046875 0.804688 -5.3125 0.953125 -5.5625 C 1.109375 -5.820312 1.34375 -6.035156 1.65625 -6.203125 C 1.976562 -6.367188 2.390625 -6.453125 2.890625 -6.453125 C 3.285156 -6.453125 3.671875 -6.390625 4.046875 -6.265625 C 4.421875 -6.148438 4.734375 -5.988281 4.984375 -5.78125 L 5.09375 -4.0625 L 4.921875 -4.0625 C 4.742188 -4.726562 4.492188 -5.210938 4.171875 -5.515625 C 3.847656 -5.828125 3.4375 -5.984375 2.9375 -5.984375 C 2.53125 -5.984375 2.203125 -5.882812 1.953125 -5.6875 C 1.710938 -5.488281 1.59375 -5.238281 1.59375 -4.9375 C 1.59375 -4.664062 1.664062 -4.457031 1.8125 -4.3125 C 1.957031 -4.164062 2.1875 -4.039062 2.5 -3.9375 Z M 2.5 -3.9375"></path></g></g></g><g fill-opacity="1" fill="#cdff00"><g transform="translate(120.858994, 105.086627)"><g><path d="M 3.9375 -6.453125 C 4.375 -6.453125 4.765625 -6.359375 5.109375 -6.171875 C 5.460938 -5.984375 5.742188 -5.648438 5.953125 -5.171875 C 6.171875 -4.703125 6.28125 -4.03125 6.28125 -3.15625 C 6.28125 -2.3125 6.171875 -1.648438 5.953125 -1.171875 C 5.742188 -0.703125 5.460938 -0.375 5.109375 -0.1875 C 4.765625 0 4.375 0.09375 3.9375 0.09375 C 3.519531 0.09375 3.171875 0.00390625 2.890625 -0.171875 C 2.609375 -0.347656 2.390625 -0.566406 2.234375 -0.828125 C 2.085938 -1.097656 1.984375 -1.375 1.921875 -1.65625 L 1.921875 2.71875 L 0.203125 2.71875 L 0.203125 2.5 C 0.390625 2.5 0.566406 2.445312 0.734375 2.34375 C 0.910156 2.238281 1 2.015625 1 1.671875 L 1 -5.28125 C 1 -5.625 0.910156 -5.847656 0.734375 -5.953125 C 0.566406 -6.054688 0.390625 -6.109375 0.203125 -6.109375 L 0.203125 -6.328125 L 1.921875 -6.328125 L 1.921875 -4.78125 C 1.972656 -5.050781 2.078125 -5.3125 2.234375 -5.5625 C 2.390625 -5.820312 2.609375 -6.035156 2.890625 -6.203125 C 3.171875 -6.367188 3.519531 -6.453125 3.9375 -6.453125 Z M 3.71875 -0.359375 C 4.257812 -0.359375 4.65625 -0.585938 4.90625 -1.046875 C 5.15625 -1.503906 5.28125 -2.207031 5.28125 -3.15625 C 5.28125 -4.125 5.148438 -4.835938 4.890625 -5.296875 C 4.628906 -5.753906 4.238281 -5.984375 3.71875 -5.984375 C 3.425781 -5.984375 3.144531 -5.890625 2.875 -5.703125 C 2.601562 -5.515625 2.375 -5.21875 2.1875 -4.8125 C 2.007812 -4.40625 1.921875 -3.851562 1.921875 -3.15625 C 1.921875 -2.476562 2.007812 -1.929688 2.1875 -1.515625 C 2.375 -1.109375 2.601562 -0.8125 2.875 -0.625 C 3.144531 -0.445312 3.425781 -0.359375 3.71875 -0.359375 Z M 3.71875 -0.359375"></path></g></g></g><g fill-opacity="1" fill="#cdff00"><g transform="translate(127.711515, 105.086627)"><g><path d="M 1.703125 -7.53125 L 0.859375 -8.390625 L 1.703125 -9.25 L 2.5625 -8.390625 Z M 2.1875 -6.328125 L 2.1875 -1.03125 C 2.1875 -0.695312 2.265625 -0.472656 2.421875 -0.359375 C 2.585938 -0.253906 2.769531 -0.203125 2.96875 -0.203125 L 2.96875 0 L 0.46875 0 L 0.46875 -0.203125 C 0.65625 -0.203125 0.832031 -0.253906 1 -0.359375 C 1.175781 -0.472656 1.265625 -0.695312 1.265625 -1.03125 L 1.265625 -5.28125 C 1.265625 -5.625 1.175781 -5.847656 1 -5.953125 C 0.832031 -6.054688 0.65625 -6.109375 0.46875 -6.109375 L 0.46875 -6.328125 Z M 2.1875 -6.328125"></path></g></g></g><g fill-opacity="1" fill="#cdff00"><g transform="translate(131.137775, 105.086627)"><g><path d="M 4.09375 -6.40625 C 4.34375 -6.40625 4.554688 -6.363281 4.734375 -6.28125 C 4.921875 -6.195312 5.050781 -6.085938 5.125 -5.953125 L 4.75 -4.875 L 4.671875 -4.90625 C 4.691406 -5.101562 4.628906 -5.273438 4.484375 -5.421875 C 4.347656 -5.578125 4.128906 -5.65625 3.828125 -5.65625 C 3.535156 -5.65625 3.265625 -5.546875 3.015625 -5.328125 C 2.765625 -5.109375 2.5625 -4.722656 2.40625 -4.171875 C 2.257812 -3.617188 2.1875 -2.851562 2.1875 -1.875 L 2.1875 -1.03125 C 2.1875 -0.695312 2.265625 -0.472656 2.421875 -0.359375 C 2.585938 -0.253906 2.769531 -0.203125 2.96875 -0.203125 L 2.96875 0 L 0.46875 0 L 0.46875 -0.203125 C 0.65625 -0.203125 0.832031 -0.253906 1 -0.359375 C 1.175781 -0.472656 1.265625 -0.695312 1.265625 -1.03125 L 1.265625 -5.28125 C 1.265625 -5.625 1.175781 -5.847656 1 -5.953125 C 0.832031 -6.054688 0.65625 -6.109375 0.46875 -6.109375 L 0.46875 -6.328125 L 2.1875 -6.328125 L 2.1875 -4.0625 L 2.21875 -4.0625 C 2.257812 -4.3125 2.320312 -4.570312 2.40625 -4.84375 C 2.5 -5.113281 2.617188 -5.363281 2.765625 -5.59375 C 2.921875 -5.832031 3.109375 -6.023438 3.328125 -6.171875 C 3.546875 -6.328125 3.800781 -6.40625 4.09375 -6.40625 Z M 4.09375 -6.40625"></path></g></g></g><g fill-opacity="1" fill="#cdff00"><g transform="translate(136.591819, 105.086627)"><g><path d="M 1.703125 -7.53125 L 0.859375 -8.390625 L 1.703125 -9.25 L 2.5625 -8.390625 Z M 2.1875 -6.328125 L 2.1875 -1.03125 C 2.1875 -0.695312 2.265625 -0.472656 2.421875 -0.359375 C 2.585938 -0.253906 2.769531 -0.203125 2.96875 -0.203125 L 2.96875 0 L 0.46875 0 L 0.46875 -0.203125 C 0.65625 -0.203125 0.832031 -0.253906 1 -0.359375 C 1.175781 -0.472656 1.265625 -0.695312 1.265625 -1.03125 L 1.265625 -5.28125 C 1.265625 -5.625 1.175781 -5.847656 1 -5.953125 C 0.832031 -6.054688 0.65625 -6.109375 0.46875 -6.109375 L 0.46875 -6.328125 Z M 2.1875 -6.328125"></path></g></g></g><g fill-opacity="1" fill="#cdff00"><g transform="translate(140.01808, 105.086627)"><g><path d="M 4.328125 -6.328125 L 4.328125 -5.765625 L 2.203125 -5.765625 L 2.203125 -1.75 C 2.203125 -1.3125 2.289062 -0.992188 2.46875 -0.796875 C 2.644531 -0.609375 2.890625 -0.515625 3.203125 -0.515625 C 3.460938 -0.515625 3.660156 -0.570312 3.796875 -0.6875 C 3.929688 -0.800781 4.023438 -0.925781 4.078125 -1.0625 C 4.140625 -1.195312 4.171875 -1.28125 4.171875 -1.3125 L 4.328125 -1.3125 C 4.328125 -1.28125 4.3125 -1.1875 4.28125 -1.03125 C 4.257812 -0.882812 4.203125 -0.722656 4.109375 -0.546875 C 4.015625 -0.367188 3.867188 -0.21875 3.671875 -0.09375 C 3.484375 0.03125 3.21875 0.09375 2.875 0.09375 C 2.332031 0.09375 1.929688 -0.0625 1.671875 -0.375 C 1.410156 -0.695312 1.28125 -1.140625 1.28125 -1.703125 L 1.28125 -5.765625 L 0.375 -5.765625 L 0.375 -6.140625 C 0.894531 -6.242188 1.28125 -6.460938 1.53125 -6.796875 C 1.78125 -7.140625 1.929688 -7.632812 1.984375 -8.28125 L 2.203125 -8.28125 L 2.203125 -6.109375 L 3.125 -6.328125 Z M 4.328125 -6.328125"></path></g></g></g><g fill-opacity="1" fill="#cdff00"><g transform="translate(144.716954, 105.086627)"><g><path d="M 1.21875 0.15625 L 0.359375 -0.734375 L 1.21875 -1.5625 L 2.0625 -0.734375 Z M 1.21875 0.15625"></path></g></g></g><g fill-opacity="1" fill="#cdff00"><g transform="translate(147.150294, 105.086627)"><g><path d="M 2.5 -3.9375 L 3.78125 -3.53125 C 4.257812 -3.375 4.613281 -3.15625 4.84375 -2.875 C 5.070312 -2.601562 5.1875 -2.234375 5.1875 -1.765625 C 5.1875 -1.359375 5.113281 -1.035156 4.96875 -0.796875 C 4.832031 -0.554688 4.648438 -0.367188 4.421875 -0.234375 C 4.203125 -0.109375 3.957031 -0.0234375 3.6875 0.015625 C 3.414062 0.0664062 3.15625 0.09375 2.90625 0.09375 C 2.289062 0.09375 1.796875 -0.015625 1.421875 -0.234375 C 1.046875 -0.460938 0.773438 -0.6875 0.609375 -0.90625 L 0.609375 -2.859375 L 0.78125 -2.859375 C 0.882812 -2.066406 1.113281 -1.453125 1.46875 -1.015625 C 1.832031 -0.578125 2.3125 -0.359375 2.90625 -0.359375 C 3.34375 -0.359375 3.6875 -0.460938 3.9375 -0.671875 C 4.195312 -0.890625 4.328125 -1.195312 4.328125 -1.59375 C 4.328125 -1.875 4.25 -2.109375 4.09375 -2.296875 C 3.945312 -2.484375 3.679688 -2.632812 3.296875 -2.75 L 2.09375 -3.140625 C 1.664062 -3.273438 1.332031 -3.472656 1.09375 -3.734375 C 0.851562 -3.992188 0.734375 -4.335938 0.734375 -4.765625 C 0.734375 -5.046875 0.804688 -5.3125 0.953125 -5.5625 C 1.109375 -5.820312 1.34375 -6.035156 1.65625 -6.203125 C 1.976562 -6.367188 2.390625 -6.453125 2.890625 -6.453125 C 3.285156 -6.453125 3.671875 -6.390625 4.046875 -6.265625 C 4.421875 -6.148438 4.734375 -5.988281 4.984375 -5.78125 L 5.09375 -4.0625 L 4.921875 -4.0625 C 4.742188 -4.726562 4.492188 -5.210938 4.171875 -5.515625 C 3.847656 -5.828125 3.4375 -5.984375 2.9375 -5.984375 C 2.53125 -5.984375 2.203125 -5.882812 1.953125 -5.6875 C 1.710938 -5.488281 1.59375 -5.238281 1.59375 -4.9375 C 1.59375 -4.664062 1.664062 -4.457031 1.8125 -4.3125 C 1.957031 -4.164062 2.1875 -4.039062 2.5 -3.9375 Z M 2.5 -3.9375"></path></g></g></g><g fill-opacity="1" fill="#cdff00"><g transform="translate(152.89802, 105.086627)"><g><path d="M 4.046875 -3.34375 L 5.609375 -0.875 C 5.796875 -0.59375 6.015625 -0.410156 6.265625 -0.328125 C 6.523438 -0.242188 6.75 -0.203125 6.9375 -0.203125 L 6.9375 0 L 5.1875 0 L 3.0625 -3.265625 L 2.125 -2.15625 L 2.125 -1.03125 C 2.125 -0.695312 2.207031 -0.472656 2.375 -0.359375 C 2.539062 -0.253906 2.71875 -0.203125 2.90625 -0.203125 L 2.90625 0 L 0.421875 0 L 0.421875 -0.203125 C 0.617188 -0.203125 0.800781 -0.253906 0.96875 -0.359375 C 1.132812 -0.472656 1.21875 -0.695312 1.21875 -1.03125 L 1.21875 -7.875 C 1.21875 -8.207031 1.132812 -8.425781 0.96875 -8.53125 C 0.800781 -8.644531 0.617188 -8.703125 0.421875 -8.703125 L 0.421875 -8.90625 L 2.125 -8.90625 L 2.125 -2.875 L 4.390625 -5.53125 C 4.535156 -5.707031 4.582031 -5.832031 4.53125 -5.90625 C 4.476562 -5.988281 4.351562 -6.039062 4.15625 -6.0625 C 3.96875 -6.09375 3.742188 -6.109375 3.484375 -6.109375 L 3.484375 -6.328125 L 6.46875 -6.328125 L 6.46875 -6.125 C 6.238281 -6.125 5.984375 -6.078125 5.703125 -5.984375 C 5.421875 -5.890625 5.171875 -5.707031 4.953125 -5.4375 L 3.234375 -3.4375 Z M 4.046875 -3.34375"></path></g></g></g><g fill-opacity="1" fill="#cdff00"><g transform="translate(160.002257, 105.086627)"><g><path d="M 1.703125 -7.53125 L 0.859375 -8.390625 L 1.703125 -9.25 L 2.5625 -8.390625 Z M 2.1875 -6.328125 L 2.1875 -1.03125 C 2.1875 -0.695312 2.265625 -0.472656 2.421875 -0.359375 C 2.585938 -0.253906 2.769531 -0.203125 2.96875 -0.203125 L 2.96875 0 L 0.46875 0 L 0.46875 -0.203125 C 0.65625 -0.203125 0.832031 -0.253906 1 -0.359375 C 1.175781 -0.472656 1.265625 -0.695312 1.265625 -1.03125 L 1.265625 -5.28125 C 1.265625 -5.625 1.175781 -5.847656 1 -5.953125 C 0.832031 -6.054688 0.65625 -6.109375 0.46875 -6.109375 L 0.46875 -6.328125 Z M 2.1875 -6.328125"></path></g></g></g><g fill-opacity="1" fill="#cdff00"><g transform="translate(163.428517, 105.086627)"><g><path d="M 6.03125 -4.28125 L 6.03125 -1.03125 C 6.03125 -0.695312 6.109375 -0.472656 6.265625 -0.359375 C 6.429688 -0.253906 6.613281 -0.203125 6.8125 -0.203125 L 6.8125 0 L 4.3125 0 L 4.3125 -0.203125 C 4.5 -0.203125 4.675781 -0.253906 4.84375 -0.359375 C 5.019531 -0.472656 5.109375 -0.695312 5.109375 -1.03125 L 5.109375 -4.125 C 5.109375 -4.75 5.019531 -5.207031 4.84375 -5.5 C 4.675781 -5.800781 4.375 -5.953125 3.9375 -5.953125 C 3.632812 -5.953125 3.347656 -5.835938 3.078125 -5.609375 C 2.804688 -5.390625 2.585938 -5.03125 2.421875 -4.53125 C 2.265625 -4.039062 2.1875 -3.367188 2.1875 -2.515625 L 2.1875 -1.03125 C 2.1875 -0.695312 2.265625 -0.472656 2.421875 -0.359375 C 2.585938 -0.253906 2.769531 -0.203125 2.96875 -0.203125 L 2.96875 0 L 0.46875 0 L 0.46875 -0.203125 C 0.65625 -0.203125 0.832031 -0.253906 1 -0.359375 C 1.175781 -0.472656 1.265625 -0.695312 1.265625 -1.03125 L 1.265625 -5.28125 C 1.265625 -5.625 1.175781 -5.847656 1 -5.953125 C 0.832031 -6.054688 0.65625 -6.109375 0.46875 -6.109375 L 0.46875 -6.328125 L 2.1875 -6.328125 L 2.1875 -4.625 L 2.21875 -4.625 C 2.28125 -4.925781 2.390625 -5.210938 2.546875 -5.484375 C 2.710938 -5.765625 2.9375 -5.992188 3.21875 -6.171875 C 3.507812 -6.359375 3.847656 -6.453125 4.234375 -6.453125 C 4.835938 -6.453125 5.285156 -6.257812 5.578125 -5.875 C 5.878906 -5.5 6.03125 -4.96875 6.03125 -4.28125 Z M 6.03125 -4.28125"></path></g></g></g></svg>